# xmcd CD database file
#
# Track frame offsets:
#	150
#	43650
#	64626
#	97054
#	109942
#	143728
#
# Disc length: 2419 seconds
#
# Revision: 0
# Processed by: cddbd v1.5.2PL0 Copyright (c) Steve Scherf et al.
# Submitted via: CDex 1.51
#
DISCID=51097106
DTITLE=North Mississippi Allstars [CD 1) - Live At 2013 Wanee Music Festival
DYEAR=2013
DGENRE=Blues
TTITLE0=Shimmy She Wobble My Baby
TTITLE1=Station Blues
TTITLE2=Up Over YOnder
TTITLE3=Rollin' N Tumblin'
TTITLE4=Goin' Down South
TTITLE5=Hear My Train A Commin'
EXTD=YEAR: 2013
EXTT0=
EXTT1=
EXTT2=
EXTT3=
EXTT4=
EXTT5=
PLAYORDER=
